<?xml version="1.0" standalone="no"?>
<!DOCTYPE svg PUBLIC "-//W3C//DTD SVG 20010904//EN"
 "http://www.w3.org/TR/2001/REC-SVG-20010904/DTD/svg10.dtd">
<svg version="1.0" xmlns="http://www.w3.org/2000/svg"
 width="16.000000pt" height="16.000000pt" viewBox="0 0 16.000000 16.000000"
 preserveAspectRatio="xMidYMid meet">
<metadata>
Created by potrace 1.11, written by Peter Selinger 2001-2013
</metadata>
<g transform="translate(0.000000,16.000000) scale(0.003125,-0.003125)"
fill="#000000" stroke="none">
<path d="M1577 2954 c-1 -1 -22 -4 -47 -6 -45 -5 -121 -35 -150 -60 -9 -7 -27
-29 -40 -48 -13 -19 -103 -138 -199 -265 -449 -589 -439 -578 -501 -595 -19
-5 -136 -10 -260 -10 -259 -2 -285 -8 -344 -89 l-31 -43 0 -556 0 -557 30 -44
c18 -27 48 -54 75 -67 43 -22 56 -23 262 -24 l217 0 7 37 c10 54 54 175 70
194 8 8 14 19 14 23 0 15 60 93 111 145 92 92 207 156 336 187 15 4 78 8 139
10 89 3 126 -1 190 -18 183 -49 337 -169 432 -336 34 -60 76 -180 81 -234 1
-10 1181 -10 1182 0 12 123 101 295 207 400 79 78 212 150 329 178 56 14 247
13 303 -1 124 -30 249 -96 326 -171 111 -109 201 -280 213 -406 1 -12 411 -9
453 2 45 13 111 76 127 121 8 23 10 115 8 294 -3 253 -3 262 -30 338 -24 68
-54 133 -92 197 -40 67 -135 167 -215 227 -160 118 -349 178 -594 189 -212 9
-215 10 -291 88 -59 61 -295 346 -563 680 -108 133 -154 169 -267 201 -54 16
-126 18 -773 19 -393 1 -714 0 -715 0z m589 -689 l0 -295 -504 0 c-277 0 -502
4 -500 9 2 4 91 125 198 269 131 174 208 269 235 286 l39 26 266 0 266 0 0
-295z m804 276 c36 -13 61 -36 127 -115 45 -54 92 -112 105 -129 13 -17 28
-35 33 -41 15 -16 91 -109 168 -203 l68 -83 -456 0 -455 0 0 295 0 296 183 -2
c143 -1 191 -4 227 -18z"/>
<path d="M1181 934 c-200 -42 -352 -229 -352 -435 -1 -257 195 -458 446 -457
130 0 231 40 319 124 121 116 171 314 117 466 -79 226 -297 350 -530 302z"/>
<path d="M3761 938 c-156 -24 -303 -152 -352 -306 -76 -241 55 -494 296 -572
202 -66 436 29 532 214 81 158 73 327 -22 471 -99 148 -270 221 -454 193z"/>
</g>
</svg>
